<svg xmlns="http://www.w3.org/2000/svg" xmlns:xlink="http://www.w3.org/1999/xlink" width="256" zoomAndPan="magnify" viewBox="0 0 192 191.999996" height="256" preserveAspectRatio="xMidYMid meet" version="1.0"><defs><clipPath id="6978e01f32"><path d="M 0 17.183594 L 192 17.183594 L 192 165.683594 L 0 165.683594 Z M 0 17.183594 " clip-rule="nonzero"/></clipPath><clipPath id="30377c9b5e"><path d="M 4.636719 4.636719 L 187.636719 4.636719 L 187.636719 90.886719 L 4.636719 90.886719 Z M 4.636719 4.636719 " clip-rule="nonzero"/></clipPath><clipPath id="d2ea4e7bfb"><path d="M 4.636719 121.382812 L 187.636719 121.382812 L 187.636719 187.382812 L 4.636719 187.382812 Z M 4.636719 121.382812 " clip-rule="nonzero"/></clipPath></defs><g clip-path="url(#6978e01f32)"><path fill="#cb6ce6" d="M 55.078125 165.742188 C 51.734375 165.742188 48.683594 163.753906 47.347656 160.648438 L 26.03125 111.148438 L 8.46875 111.148438 C 3.816406 111.148438 0.046875 107.378906 0.046875 102.730469 C 0.046875 98.078125 3.816406 94.308594 8.46875 94.308594 L 31.574219 94.308594 C 34.9375 94.308594 37.980469 96.308594 39.3125 99.398438 L 53.550781 132.472656 L 85.394531 23.246094 C 86.449219 19.621094 89.800781 17.257812 93.566406 17.183594 C 97.34375 17.222656 100.632812 19.773438 101.609375 23.421875 L 123.808594 106.175781 L 136.828125 67.808594 C 137.972656 64.441406 141.101562 62.152344 144.65625 62.09375 C 144.703125 62.089844 144.753906 62.089844 144.804688 62.089844 C 148.296875 62.089844 151.4375 64.253906 152.679688 67.53125 L 165.117188 100.371094 L 183.515625 100.371094 C 188.167969 100.371094 191.9375 104.140625 191.9375 108.792969 C 191.9375 113.445312 188.167969 117.214844 183.515625 117.214844 L 159.300781 117.214844 C 155.800781 117.214844 152.664062 115.046875 151.425781 111.773438 L 145.238281 95.4375 L 130.839844 137.867188 C 129.648438 141.382812 126.320312 143.667969 122.589844 143.578125 C 118.882812 143.457031 115.691406 140.925781 114.730469 137.34375 L 93.140625 56.851562 L 63.167969 159.675781 C 62.175781 163.085938 59.144531 165.507812 55.601562 165.722656 C 55.425781 165.734375 55.253906 165.742188 55.078125 165.742188 " fill-opacity="1" fill-rule="nonzero"/></g><g clip-path="url(#30377c9b5e)"><path fill="#cb6ce6" d="M 95.996094 187.355469 C 45.523438 187.355469 4.636719 146.1875 4.636719 95.996094 C 4.636719 45.804688 45.523438 4.636719 95.996094 4.636719 C 146.46875 4.636719 187.355469 45.523438 187.355469 95.996094 C 187.355469 146.46875 146.1875 187.355469 95.996094 187.355469 Z M 95.996094 10.277344 C 48.625 10.277344 10.277344 48.625 10.277344 95.996094 C 10.277344 143.367188 48.625 181.714844 95.996094 181.714844 C 143.367188 181.714844 181.714844 143.367188 181.714844 95.996094 C 181.714844 48.625 143.085938 10.277344 95.996094 10.277344 Z M 95.996094 10.277344 " fill-opacity="1" fill-rule="nonzero"/></g><g clip-path="url(#d2ea4e7bfb)"><path fill="#cb6ce6" d="M 95.996094 187.355469 C 45.523438 187.355469 4.636719 146.1875 4.636719 95.996094 C 4.636719 45.804688 45.523438 4.636719 95.996094 4.636719 C 146.46875 4.636719 187.355469 45.523438 187.355469 95.996094 C 187.355469 146.46875 146.1875 187.355469 95.996094 187.355469 Z M 95.996094 10.277344 C 48.625 10.277344 10.277344 48.625 10.277344 95.996094 C 10.277344 143.367188 48.625 181.714844 95.996094 181.714844 C 143.367188 181.714844 181.714844 143.367188 181.714844 95.996094 C 181.714844 48.625 143.085938 10.277344 95.996094 10.277344 Z M 95.996094 10.277344 " fill-opacity="1" fill-rule="nonzero"/></g></svg>