<svg xmlns="http://www.w3.org/2000/svg" xmlns:xlink="http://www.w3.org/1999/xlink" width="256" zoomAndPan="magnify" viewBox="0 0 192 191.999996" height="256" preserveAspectRatio="xMidYMid meet" version="1.0"><defs><clipPath id="b69dd9688a"><path d="M 18.605469 36.117188 L 173.105469 36.117188 L 173.105469 156 L 18.605469 156 Z M 18.605469 36.117188 " clip-rule="nonzero"/></clipPath></defs><g clip-path="url(#b69dd9688a)"><path fill="#cb6ce6" d="M 63.007812 155.882812 C 60.3125 155.882812 57.851562 154.277344 56.773438 151.777344 L 39.589844 111.871094 L 25.429688 111.871094 C 21.679688 111.871094 18.640625 108.828125 18.640625 105.082031 C 18.640625 101.332031 21.679688 98.292969 25.429688 98.292969 L 44.058594 98.292969 C 46.769531 98.292969 49.21875 99.90625 50.292969 102.394531 L 61.773438 129.0625 L 87.445312 41.003906 C 88.296875 38.082031 91 36.175781 94.035156 36.117188 C 97.082031 36.148438 99.730469 38.203125 100.519531 41.144531 L 118.414062 107.859375 L 128.910156 76.929688 C 129.832031 74.214844 132.355469 72.371094 135.222656 72.324219 C 135.261719 72.320312 135.300781 72.320312 135.339844 72.320312 C 138.15625 72.320312 140.6875 74.0625 141.691406 76.707031 L 151.714844 103.179688 L 166.546875 103.179688 C 170.296875 103.179688 173.335938 106.222656 173.335938 109.96875 C 173.335938 113.71875 170.296875 116.757812 166.546875 116.757812 L 147.027344 116.757812 C 144.203125 116.757812 141.675781 115.011719 140.675781 112.375 L 135.691406 99.203125 L 124.082031 133.410156 C 123.121094 136.242188 120.4375 138.085938 117.433594 138.011719 C 114.445312 137.914062 111.871094 135.875 111.097656 132.988281 L 93.691406 68.097656 L 69.527344 150.992188 C 68.726562 153.742188 66.285156 155.691406 63.425781 155.867188 C 63.285156 155.878906 63.144531 155.882812 63.007812 155.882812 " fill-opacity="1" fill-rule="nonzero"/></g></svg>